<?xml version="1.0" encoding="utf-8"?>
<!-- Uploaded to: SVG Repo, www.svgrepo.com, Generator: SVG Repo Mixer Tools -->
<svg width="800px" height="800px" viewBox="0 0 64 64" xmlns="http://www.w3.org/2000/svg">
  <g fill="none" fill-rule="evenodd">
    <circle cx="32" cy="32" r="30" fill="#B4DFFB"/>
    <path fill="#22BA8E" d="M35.2816239,22.4407222 C34.2536738,22.1551577 33.1494863,22 32,22 C30.7228652,22 29.5016484,22.1915311 28.3787824,22.5406472 C27.7973298,21.3204749 26.2069017,18.2313852 24.4705652,17 C24.4705652,17 22.6510996,21.775948 23.0598247,26.4118587 C22.3817543,27.491008 22,28.7098386 22,30 C22,33.6819688 25.1092526,36.7829736 29.3418468,37.7142857 C25.1092543,40.0425617 22,47.7950756 22,57 C22,58.1386202 22.0475744,59.2550172 22.1389646,60.3416736 C25.2274026,61.4161234 28.5455154,62 32,62 C35.4544846,62 38.7725974,61.4161234 41.8610354,60.3416736 C41.9524256,59.2550172 42,58.1386202 42,57 C42,47.7950756 38.8907457,40.0425617 34.6581498,37.7142838 C38.8907474,36.7829736 42,33.6819688 42,30 C42,28.501542 41.4850264,27.0993067 40.5889399,25.9003829 C40.8301434,21.4313375 39.1419621,17 39.1419621,17 C37.4512222,18.1990488 35.8988281,21.1595155 35.2816239,22.4407222 Z"/>
    <circle cx="54" cy="10" r="10" fill="#80D25B"/>
    <path stroke="#0A3586" stroke-linecap="square" stroke-width="2" d="M54 16L54 4M48 10L60 10"/>
  </g>
</svg>